# xmcd
#
# Track frame offsets: 
#        150
#        23026
#        50476
#        70576
#        89591
#        114679
#        141155
#        162501
#        185578
#        205057
#        225743
#        250412
#        267537
#        296339
#
# Disc length: 4089 seconds
#
# Revision: 0
# Processed by: cddbd v1.5.2PL0 Copyright (c) Steve Scherf et al.
# Submitted via: ExactAudioCopy v0.95b4
#
DISCID=d10ff70e
DTITLE=Liviu Iban Manciu - Decade
DYEAR=2007
DGENRE=Blues
TTITLE0=Empty Arms
TTITLE1=The Journey
TTITLE2=Wonderland
TTITLE3=Seven Dreams
TTITLE4=Dr. Music
TTITLE5=Source Of Life
TTITLE6=True Love
TTITLE7=Latino Man
TTITLE8=Running Time
TTITLE9=High Places
TTITLE10=Soul Of The Desert
TTITLE11=Conversation
TTITLE12=Cantaloupe Island
TTITLE13=Electric Guitar Solo
EXTD=
EXTT0=
EXTT1=
EXTT2=
EXTT3=
EXTT4=
EXTT5=
EXTT6=
EXTT7=
EXTT8=
EXTT9=
EXTT10=
EXTT11=
EXTT12=
EXTT13=
PLAYORDER=
